<svg width="36" height="36" viewBox="0 0 36 36" fill="none" xmlns="http://www.w3.org/2000/svg">
<circle cx="18" cy="18" r="17.5" stroke="#ECA078"/>
<path d="M18.4948 17.2489C21.0441 17.2489 23.1243 15.1788 23.1243 12.6295C23.1243 10.07 21.0441 8 18.4948 8C15.9455 8 13.8653 10.07 13.8653 12.6295C13.8653 15.1788 15.9455 17.2489 18.4948 17.2489ZM18.4948 10.3454C19.7491 10.3454 20.7688 11.3651 20.7688 12.6295C20.7688 13.8838 19.7491 14.9035 18.4948 14.9035C17.2406 14.9035 16.2208 13.8838 16.2208 12.6295C16.2208 11.3651 17.2406 10.3454 18.4948 10.3454ZM23.8279 17.8097C23.5628 17.2897 22.8388 16.8512 21.8803 17.6058C21.8803 17.6058 20.5852 18.6357 18.4948 18.6357C16.4044 18.6357 15.1093 17.6058 15.1093 17.6058C14.1508 16.8512 13.4268 17.2897 13.1617 17.8097C12.713 18.7275 13.2229 19.1659 14.3853 19.9205C15.3745 20.5528 16.7409 20.7873 17.6178 20.8791L16.8836 21.6133C15.8435 22.6432 14.8544 23.6425 14.161 24.3359C13.7429 24.754 13.7429 25.427 14.161 25.8349L14.2834 25.9675C14.6913 26.3754 15.3643 26.3754 15.7824 25.9675L18.505 23.2346C19.5451 24.2747 20.5444 25.2741 21.2277 25.9675C21.6457 26.3754 22.3188 26.3754 22.7368 25.9675L22.8592 25.8349C23.2671 25.427 23.2671 24.754 22.8592 24.3359L20.1366 21.6133L19.3922 20.8791C20.2793 20.7873 21.6254 20.5426 22.6043 19.9205C23.7668 19.1659 24.2766 18.7275 23.8279 17.8097Z" fill="#ECA078"/>
</svg>
