<svg width="36" height="36" viewBox="0 0 36 36" fill="none" xmlns="http://www.w3.org/2000/svg">
<circle cx="18" cy="18" r="17.5" stroke="#ECA078"/>
<path d="M26.251 13.7541C26.251 13.7541 26.1178 13.3735 25.2899 13.4781L22.5494 13.4972C22.34 13.4686 22.1878 13.5542 22.1878 13.5542C22.1878 13.5542 22.026 13.6399 21.9499 13.8492C21.5026 15.0006 20.9317 15.9903 20.9317 15.9903C19.7137 18.0647 19.2188 18.1789 19.019 18.0457C18.5527 17.7507 18.6764 16.8467 18.6764 16.1996C18.6764 14.1823 18.9809 13.3449 18.0769 13.126C17.782 13.0594 17.5631 13.0118 16.7923 13.0023C15.8122 12.9928 14.9843 13.0023 14.5181 13.2307C14.204 13.383 13.9661 13.7255 14.1089 13.7446C14.2897 13.7731 14.6989 13.8587 14.9177 14.1537C14.9177 14.1537 15.1556 14.5439 15.1937 15.4003C15.2983 17.7697 14.813 18.0647 14.813 18.0647C14.4419 18.2646 13.7949 17.9315 12.8433 15.9713C12.8433 15.9713 12.2914 15.0006 11.8631 13.9349C11.787 13.735 11.6348 13.6304 11.6348 13.6304C11.6348 13.6304 11.4635 13.4971 11.2161 13.4591L8.60875 13.4781C8.20909 13.4781 8.06635 13.6589 8.06635 13.6589C8.06635 13.6589 7.92362 13.8112 8.05684 14.1252C10.0932 18.9116 12.4151 21.3096 12.4151 21.3096C12.4151 21.3096 14.5371 23.5268 16.9446 23.3745H18.0389C18.3719 23.3459 18.5432 23.1652 18.5432 23.1652C18.5432 23.1652 18.6955 22.9939 18.686 22.6799C18.6669 21.2144 19.3521 20.9956 19.3521 20.9956C20.0182 20.7862 20.8746 22.4134 21.7881 23.0414C21.7881 23.0414 22.4828 23.5172 23.0061 23.4126L25.4422 23.3745C26.7268 23.365 26.1178 22.2992 26.1178 22.2992C26.0702 22.2136 25.7657 21.557 24.3003 20.1962C22.7777 18.7784 22.9776 19.0068 24.8236 16.5517C25.9465 15.0577 26.3937 14.1442 26.251 13.754V13.7541Z" fill="#ECA078"/>
</svg>
