<svg width="36" height="36" viewBox="0 0 36 36" fill="none" xmlns="http://www.w3.org/2000/svg">
	<circle cx="18" cy="18" r="17.5" stroke="#ECA078" />
	<path d="M20.4426 17.8321C20.4426 19.2699 19.2699 20.4426 17.8321 20.4426C16.3943 20.4426 15.2216 19.2699 15.2216 17.8321C15.2216 16.3943 16.3943 15.2216 17.8321 15.2216C19.2699 15.2216 20.4426 16.3943 20.4426 17.8321ZM21.8498 17.8321C21.8498 15.6091 20.0551 13.8144 17.8321 13.8144C15.6091 13.8144 13.8144 15.6091 13.8144 17.8321C13.8144 20.0551 15.6091 21.8498 17.8321 21.8498C20.0551 21.8498 21.8498 20.0551 21.8498 17.8321ZM22.9511 13.6512C22.9511 13.1312 22.533 12.7131 22.0129 12.7131C21.4929 12.7131 21.0748 13.1312 21.0748 13.6512C21.0748 14.1713 21.4929 14.5894 22.0129 14.5894C22.533 14.5894 22.9511 14.1713 22.9511 13.6512ZM17.8321 11.4078C18.9742 11.4078 21.4215 11.3161 22.4514 11.724C22.8083 11.8667 23.0734 12.0401 23.3488 12.3154C23.6241 12.5907 23.7975 12.8559 23.9402 13.2128C24.3481 14.2427 24.2563 16.69 24.2563 17.8321C24.2563 18.9742 24.3481 21.4215 23.9402 22.4514C23.7975 22.8083 23.6241 23.0734 23.3488 23.3488C23.0734 23.6241 22.8083 23.7974 22.4514 23.9402C21.4215 24.3481 18.9742 24.2563 17.8321 24.2563C16.69 24.2563 14.2427 24.3481 13.2128 23.9402C12.8559 23.7974 12.5907 23.6241 12.3154 23.3488C12.0401 23.0734 11.8667 22.8083 11.724 22.4514C11.3161 21.4215 11.4079 18.9742 11.4079 17.8321C11.4079 16.69 11.3161 14.2427 11.724 13.2128C11.8667 12.8559 12.0401 12.5907 12.3154 12.3154C12.5907 12.0401 12.8559 11.8667 13.2128 11.724C14.2427 11.3161 16.69 11.4078 17.8321 11.4078ZM25.6635 17.8321C25.6635 16.7512 25.6737 15.6805 25.6126 14.5996C25.5514 13.3453 25.2658 12.2338 24.3481 11.3161C23.4303 10.3983 22.3189 10.1128 21.0646 10.0516C19.9837 9.99044 18.913 10.0006 17.8321 10.0006C16.7512 10.0006 15.6805 9.99045 14.5996 10.0516C13.3453 10.1128 12.2338 10.3983 11.3161 11.3161C10.3983 12.2338 10.1128 13.3453 10.0516 14.5996C9.99044 15.6805 10.0006 16.7512 10.0006 17.8321C10.0006 18.913 9.99044 19.9837 10.0516 21.0646C10.1128 22.3189 10.3983 23.4303 11.3161 24.3481C12.2338 25.2658 13.3453 25.5514 14.5996 25.6125C15.6805 25.6737 16.7512 25.6635 17.8321 25.6635C18.913 25.6635 19.9837 25.6737 21.0646 25.6125C22.3189 25.5514 23.4303 25.2658 24.3481 24.3481C25.2658 23.4303 25.5514 22.3189 25.6126 21.0646C25.6737 19.9837 25.6635 18.913 25.6635 17.8321Z" fill="#ECA078" />
</svg>
