<svg width="150" height="150" viewBox="0 0 150 150" fill="none" xmlns="http://www.w3.org/2000/svg">
<g clip-path="url(#clip0)">
<rect width="150" height="150" fill="white"/>
<circle cx="75.0873" cy="75.0934" r="73" transform="rotate(0.0990664 75.0873 75.0934)" fill="url(#paint0_linear)"/>
<path fill-rule="evenodd" clip-rule="evenodd" d="M61.807 111.998C91.6798 116.374 119.444 95.7049 123.82 65.8321C124.826 58.9635 124.508 52.2063 123.059 45.8193C132.21 57.2461 136.774 72.2964 134.485 87.9238C130.109 117.797 102.345 138.466 72.4724 134.09C49.4683 130.72 31.9219 113.481 27.0675 92.0898C35.4092 102.506 47.5616 109.911 61.807 111.998Z" fill="#271714"/>
<path fill-rule="evenodd" clip-rule="evenodd" d="M28.5605 43.1545C17.4142 81.7085 39.6324 121.999 78.1864 133.145C92.0523 137.154 106.143 136.847 119.021 133.017C101.246 147.025 77.2075 152.55 53.8081 145.785C15.2541 134.639 -6.96415 94.3486 4.18219 55.7946C11.3198 31.1065 30.4077 13.1169 53.3378 6.29711C41.8261 15.3695 32.9419 28 28.5605 43.1545Z" fill="#7E6064"/>
<path d="M94.1721 26.1263L67.1721 26.0796L62.1081 63.0709L73.1012 67.0899L67.0511 96.0795L94.1159 58.6262L77.6159 58.5977L94.1721 26.1263Z" fill="#FFE391" stroke="#FFE391"/>
</g>
<defs>
<linearGradient id="paint0_linear" x1="52.5873" y1="-32.9066" x2="75.0873" y2="75.0934" gradientUnits="userSpaceOnUse">
<stop stop-color="#F3836C"/>
<stop offset="1" stop-color="#ECA078"/>
</linearGradient>
<clipPath id="clip0">
<rect width="150" height="150" fill="white"/>
</clipPath>
</defs>
</svg>
