<svg width="150" height="150" viewBox="0 0 150 150" fill="none" xmlns="http://www.w3.org/2000/svg">
<rect width="150" height="150" fill="white"/>
<circle cx="75.1261" cy="75.1261" r="73" transform="rotate(0.0990664 75.1261 75.1261)" fill="url(#paint0_linear)"/>
<path fill-rule="evenodd" clip-rule="evenodd" d="M67.8244 98.5919C97.5037 98.6432 121.605 74.625 121.656 44.9457C121.668 38.1214 120.408 31.592 118.098 25.582C128.61 35.4107 135.17 49.4106 135.143 64.9369C135.092 94.6162 110.991 118.634 81.3114 118.583C58.4565 118.544 38.9585 104.242 31.2237 84.1148C40.8059 93.074 53.6715 98.5674 67.8244 98.5919Z" fill="#7E6064"/>
<path fill-rule="evenodd" clip-rule="evenodd" d="M56.0342 128.093C96.3509 128.163 129.091 95.5362 129.16 55.2195C129.185 40.7196 124.981 27.1999 117.711 15.8275C136.166 29.1046 148.168 50.7829 148.126 75.2522C148.056 115.569 115.316 148.196 74.9998 148.126C49.1829 148.081 26.5193 134.64 13.5751 114.392C25.5275 122.991 40.1868 128.066 56.0342 128.093Z" fill="#271714"/>
<path d="M74.354 23.5842C74.742 22.9291 75.6906 22.9308 76.0764 23.5872L85.2336 39.1674C85.3823 39.4204 85.6345 39.5953 85.9235 39.6458L104.64 42.9186C105.443 43.0591 105.75 44.0507 105.165 44.6199L92.1524 57.2973C91.9247 57.5191 91.8161 57.836 91.8597 58.1509L94.2731 75.5594C94.3806 76.3348 93.5956 76.9275 92.8792 76.6117L75.5385 68.968C75.2826 68.8553 74.9912 68.8548 74.735 68.9667L57.3679 76.5503C56.6504 76.8636 55.8675 76.2682 55.9777 75.4931L58.4512 58.0932C58.496 57.7784 58.3884 57.4612 58.1615 57.2385L45.1924 44.5162C44.6101 43.945 44.9198 42.9544 45.7238 42.8167L64.4514 39.6087C64.7406 39.5591 64.9934 39.3851 65.143 39.1327L74.354 23.5842Z" fill="#FFE391"/>
<defs>
<linearGradient id="paint0_linear" x1="68.6261" y1="61.6261" x2="63.1261" y2="-68.3739" gradientUnits="userSpaceOnUse">
<stop stop-color="#ECA078"/>
<stop offset="1" stop-color="#FF5B5B"/>
</linearGradient>
</defs>
</svg>
