<svg width="150" height="150" viewBox="0 0 150 150" fill="none" xmlns="http://www.w3.org/2000/svg">
<g clip-path="url(#clip0)">
<rect width="150" height="150" fill="white"/>
<circle cx="74.8737" cy="73.9625" r="73" transform="rotate(0.0990664 74.8737 73.9625)" fill="url(#paint0_linear)"/>
<path fill-rule="evenodd" clip-rule="evenodd" d="M111.822 101.376C129.968 77.2469 125.119 42.9753 100.989 24.8284C95.4413 20.6559 89.357 17.6992 83.0559 15.9131C97.4694 13.3516 112.868 16.5514 125.491 26.0446C149.62 44.1914 154.47 78.463 136.323 102.592C122.349 121.174 98.8121 128.322 77.7085 122.34C90.8474 120.005 103.168 112.883 111.822 101.376Z" fill="#7E6064"/>
<path fill-rule="evenodd" clip-rule="evenodd" d="M25.0525 100.224C53.5607 128.472 99.5704 128.261 127.818 99.7523C137.977 89.4994 144.455 76.9827 147.26 63.8426C151.046 86.155 144.385 109.904 127.24 127.207C98.9928 155.715 52.9831 155.926 24.4749 127.679C6.21958 109.59 -0.432539 84.2183 4.56105 60.8226C7.01291 75.273 13.8467 89.1208 25.0525 100.224Z" fill="#271714"/>
<path d="M74.6235 35C70.8646 35 67.1425 35.7403 63.6697 37.1788C60.197 38.6172 57.0415 40.7256 54.3836 43.3836C51.7256 46.0415 49.6172 49.197 48.1788 52.6697C46.7403 56.1425 46 59.8646 46 63.6235C46.0001 71.2149 49.0158 78.4953 54.3838 83.8631C59.7517 89.2309 67.0322 92.2465 74.6235 92.2465C82.2149 92.2465 89.4953 89.2309 94.8633 83.8631C100.231 78.4953 103.247 71.2149 103.247 63.6235C103.247 59.8646 102.507 56.1425 101.068 52.6697C99.6298 49.197 97.5214 46.0415 94.8635 43.3836C92.2055 40.7256 89.0501 38.6172 85.5773 37.1788C82.1045 35.7403 78.3824 35 74.6235 35ZM63.3571 54.0315C63.757 54.0315 64.153 54.1103 64.5224 54.2633C64.8918 54.4163 65.2275 54.6406 65.5103 54.9234C65.793 55.2062 66.0173 55.5418 66.1704 55.9113C66.3234 56.2807 66.4021 56.6767 66.4021 57.0766C66.4021 57.4764 66.3234 57.8724 66.1704 58.2419C66.0173 58.6113 65.793 58.947 65.5103 59.2297C65.2275 59.5125 64.8918 59.7368 64.5224 59.8898C64.1529 60.0429 63.757 60.1216 63.3571 60.1216C62.9572 60.1216 62.5613 60.0429 62.1918 59.8898C61.8224 59.7368 61.4867 59.5125 61.2039 59.2297C60.9212 58.947 60.6969 58.6113 60.5438 58.2419C60.3908 57.8724 60.3121 57.4764 60.3121 57.0766C60.3121 56.6767 60.3908 56.2807 60.5438 55.9113C60.6969 55.5418 60.9212 55.2062 61.2039 54.9234C61.4867 54.6406 61.8224 54.4163 62.1918 54.2633C62.5613 54.1103 62.9572 54.0315 63.3571 54.0315ZM85.1287 54.0315C85.5286 54.0315 85.9245 54.1103 86.294 54.2633C86.6634 54.4163 86.9991 54.6406 87.2819 54.9234C87.5646 55.2062 87.7889 55.5418 87.942 55.9113C88.095 56.2807 88.1737 56.6767 88.1737 57.0766C88.1737 57.4764 88.095 57.8724 87.942 58.2419C87.7889 58.6113 87.5646 58.947 87.2819 59.2297C86.9991 59.5125 86.6634 59.7368 86.294 59.8898C85.9245 60.0429 85.5286 60.1216 85.1287 60.1216C84.7288 60.1216 84.3328 60.0429 83.9634 59.8898C83.594 59.7368 83.2583 59.5125 82.9755 59.2297C82.6928 58.947 82.4685 58.6113 82.3154 58.2419C82.1624 57.8724 82.0837 57.4764 82.0837 57.0766C82.0837 56.6767 82.1624 56.2807 82.3154 55.9113C82.4685 55.5418 82.6928 55.2062 82.9755 54.9234C83.2583 54.6406 83.594 54.4163 83.9634 54.2633C84.3328 54.1103 84.7288 54.0315 85.1287 54.0315ZM89.6238 66.3406C88.2841 69.7064 86.1627 72.5528 83.5069 74.548C80.8511 76.5432 77.7703 77.6051 74.6235 77.61C71.4773 77.6057 68.3968 76.5446 65.7411 74.5505C63.0854 72.5563 60.9637 69.7112 59.6232 66.3465C63.7471 70.8708 69.0868 73.3774 74.6235 73.388C80.1609 73.3758 85.5006 70.8671 89.6238 66.3406Z" fill="#FFE391"/>
</g>
<defs>
<linearGradient id="paint0_linear" x1="40.9242" y1="1.05859" x2="57.0279" y2="61.0308" gradientUnits="userSpaceOnUse">
<stop stop-color="#F4816C"/>
<stop offset="1" stop-color="#ECA078"/>
</linearGradient>
<clipPath id="clip0">
<rect width="150" height="150" fill="white"/>
</clipPath>
</defs>
</svg>
