<svg width="1920" height="127" viewBox="0 0 1920 127" fill="none" xmlns="http://www.w3.org/2000/svg">
<g clip-path="url(#clip0)">
<rect width="1920" height="127" fill="white"/>
<path d="M-38.9999 85.9999C38.6193 76.193 98.0794 65.0202 160.59 50.4633C212.969 38.2656 269.053 17.7422 337.828 9.56504C426.955 -1.03185 602.246 36.8944 661.137 46.5972C685.215 50.5642 777.307 77.1754 812.45 77.8116C845.488 78.4097 950.916 50.5923 979.353 45.1758C1105 21.2428 1231.43 49.1369 1373.23 56.5031C1570.47 66.749 1756.25 71.3603 1958.03 71.7091" stroke="#FF5B5B" stroke-width="3" stroke-linecap="round" stroke-linejoin="round"/>
<path d="M1922.93 127.392C1848.34 117.322 1791.21 105.948 1731.16 91.179C1680.84 78.8037 1626.99 58.0902 1560.89 49.6798C1475.24 38.7808 1306.58 76.1123 1249.93 85.6153C1226.77 89.5006 1138.13 115.799 1104.34 116.316C1072.58 116.802 971.31 88.6276 943.988 83.1148C823.263 58.7558 701.62 86.2209 565.263 93.1061C375.597 102.683 196.965 106.664 2.96499 106.329" stroke="#271714" stroke-width="3" stroke-linecap="round" stroke-linejoin="round"/>
</g>
<defs>
<clipPath id="clip0">
<rect width="1920" height="127" fill="white"/>
</clipPath>
</defs>
</svg>
